<svg width="207" height="36" viewBox="0 0 207 36" fill="none" xmlns="http://www.w3.org/2000/svg">
<g id="Group 37">
<path id="Vector" d="M17.9391 35.9313C27.8465 35.9313 35.8781 27.8878 35.8781 17.9656C35.8781 8.04349 27.8465 0 17.9391 0C8.03159 0 0 8.04349 0 17.9656C0 27.8878 8.03159 35.9313 17.9391 35.9313Z" fill="white" fill-opacity="0.1"/>
<path id="Vector_2" d="M35.8789 0.729044C35.8788 0.632852 35.8981 0.537637 35.9357 0.449094C35.9732 0.360551 36.0282 0.280501 36.0974 0.213736C36.1665 0.146972 36.2484 0.0948635 36.3381 0.0605309C36.4278 0.0261983 36.5235 0.0103444 36.6195 0.0139227C41.244 0.207342 45.615 2.18323 48.8188 5.52863C52.0227 8.87404 53.8116 13.3301 53.8116 17.9655C53.8116 22.6009 52.0227 27.0569 48.8188 30.4023C45.615 33.7477 41.244 35.7236 36.6195 35.917C36.5235 35.9206 36.4278 35.9048 36.3381 35.8704C36.2484 35.8361 36.1665 35.784 36.0974 35.7172C36.0282 35.6505 35.9732 35.5704 35.9357 35.4819C35.8981 35.3933 35.8788 35.2981 35.8789 35.2019V0.729044Z" fill="white" fill-opacity="0.1"/>
<path id="Vector_3" d="M74.7477 35.9313C84.6551 35.9313 92.6867 27.8878 92.6867 17.9656C92.6867 8.04349 84.6551 0 74.7477 0C64.8402 0 56.8086 8.04349 56.8086 17.9656C56.8086 27.8878 64.8402 35.9313 74.7477 35.9313Z" fill="white" fill-opacity="0.1"/>
<path id="Vector_4" d="M92.6875 0.729231C92.6877 0.633102 92.7071 0.537986 92.7447 0.449543C92.7823 0.361101 92.8373 0.281136 92.9064 0.214415C92.9755 0.147694 93.0573 0.0955784 93.1469 0.0611665C93.2366 0.0267546 93.3322 0.010751 93.4281 0.0141094C98.0526 0.207528 102.424 2.18341 105.627 5.52882C108.831 8.87423 110.62 13.3303 110.62 17.9657C110.62 22.6011 108.831 27.0571 105.627 30.4025C102.424 33.7479 98.0526 35.7238 93.4281 35.9172C93.3322 35.9206 93.2366 35.9046 93.1469 35.8702C93.0573 35.8358 92.9755 35.7836 92.9064 35.7169C92.8373 35.6502 92.7823 35.5702 92.7447 35.4818C92.7071 35.3933 92.6877 35.2982 92.6875 35.2021V0.729231Z" fill="white" fill-opacity="0.1"/>
<path id="Vector_5" d="M131.556 35.9313C141.464 35.9313 149.495 27.8878 149.495 17.9656C149.495 8.04349 141.464 0 131.556 0C121.649 0 113.617 8.04349 113.617 17.9656C113.617 27.8878 121.649 35.9313 131.556 35.9313Z" fill="white" fill-opacity="0.1"/>
<path id="Vector_6" d="M149.496 0.729044C149.496 0.632852 149.515 0.537637 149.553 0.449094C149.59 0.360551 149.645 0.280501 149.715 0.213736C149.784 0.146972 149.866 0.0948635 149.955 0.0605309C150.045 0.0261983 150.141 0.0103444 150.237 0.0139227C154.861 0.207342 159.232 2.18323 162.436 5.52863C165.64 8.87404 167.429 13.3301 167.429 17.9655C167.429 22.6009 165.64 27.0569 162.436 30.4023C159.232 33.7477 154.861 35.7236 150.237 35.917C150.141 35.9206 150.045 35.9048 149.955 35.8704C149.866 35.8361 149.784 35.784 149.715 35.7172C149.645 35.6505 149.59 35.5704 149.553 35.4819C149.515 35.3933 149.496 35.2981 149.496 35.2019V0.729044Z" fill="white" fill-opacity="0.1"/>
<path id="Vector_7" d="M188.365 35.9313C198.272 35.9313 206.304 27.8878 206.304 17.9656C206.304 8.04349 198.272 0 188.365 0C178.457 0 170.426 8.04349 170.426 17.9656C170.426 27.8878 178.457 35.9313 188.365 35.9313Z" fill="white" fill-opacity="0.1"/>
</g>
</svg>
