<svg width="151" height="26" viewBox="0 0 151 26" fill="none" xmlns="http://www.w3.org/2000/svg">
<g id="Group 26">
<g id="Group">
<path id="Vector" d="M0.129883 7.69775H12.6843C12.0878 10.6194 9.50375 12.8182 6.40771 12.8182C3.31166 12.8182 0.726467 10.6206 0.131074 7.69775H0.129883Z" fill="#1481BA"/>
<path id="Vector_2" d="M12.6843 5.1204H0.129883C0.726467 2.19871 3.31047 0 6.40652 0C9.50256 0 12.0878 2.19871 12.6831 5.1204H12.6843Z" fill="#1481BA"/>
<path id="Vector_3" d="M9.89424 13.9177L1.03122 22.7828C0.378669 21.7788 0 20.5805 0 19.2954C0 15.7555 2.8686 12.8862 6.40762 12.8862C7.69367 12.8862 8.8916 13.265 9.89424 13.9189V13.9177Z" fill="#1481BA"/>
<path id="Vector_4" d="M12.8141 19.294V19.3274C12.7962 22.8517 9.93357 25.7032 6.40646 25.7032C5.08588 25.7032 3.85818 25.3042 2.83887 24.6181L11.7293 15.7256C12.414 16.7463 12.8141 17.9743 12.8141 19.294Z" fill="#1481BA"/>
<path id="Vector_5" d="M25.6285 6.44256C25.6285 9.54053 23.4315 12.1251 20.5093 12.7207V9.45358C20.5093 7.0643 18.5659 5.12047 16.1772 5.12047H12.9502C13.5587 2.21426 16.1355 0.0322266 19.2209 0.0322266C22.7599 0.0322266 25.6285 2.90151 25.6285 6.44256Z" fill="#1481BA"/>
<path id="Vector_6" d="M17.9327 13.0471V25.6057C15.0117 25.009 12.8135 22.4244 12.8135 19.3276V19.2943C12.829 16.2094 15.0212 13.6415 17.9327 13.0483V13.0471Z" fill="#1481BA"/>
<path id="Vector_7" d="M25.628 19.3276C25.628 22.4256 23.431 25.0102 20.5088 25.6057V13.0471C23.4298 13.6438 25.628 16.2285 25.628 19.3264V19.3276Z" fill="#1481BA"/>
</g>
<g id="Group_2">
<path id="Vector_8" d="M35.8359 3.56616H38.7367V23.6047H35.8359V3.56616Z" fill="white"/>
<path id="Vector_9" d="M55.5276 15.1111V23.6046H52.6876V15.6197C52.6876 13.047 51.192 11.1329 48.6211 11.1329C45.9001 11.1329 44.0461 13.2566 44.0461 16.2176V23.6046H41.2061V8.79963H43.9865V10.803H44.1056C45.2416 9.36777 47.0361 8.38037 49.2189 8.38037C52.9865 8.38037 55.5276 11.0126 55.5276 15.1099V15.1111Z" fill="white"/>
<path id="Vector_10" d="M72.3919 15.1111V23.6046H69.5519V15.6197C69.5519 13.047 68.0562 11.1329 65.4853 11.1329C62.7644 11.1329 60.9103 13.2566 60.9103 16.2176V23.6046H58.0703V8.79963H60.8508V10.803H60.9699C62.1059 9.36777 63.9004 8.38037 66.0831 8.38037C69.8508 8.38037 72.3919 11.0126 72.3919 15.1099V15.1111Z" fill="white"/>
<path id="Vector_11" d="M77.7736 2.07129V6.40797H74.9336V2.07129H77.7736ZM77.7736 8.80083V23.6058H74.9336V8.80083H77.7736Z" fill="white"/>
<path id="Vector_12" d="M91.9756 14.1845C91.3778 12.4491 89.7036 11.1044 87.4304 11.1044C84.3808 11.1044 82.4064 13.377 82.4064 16.1891C82.4064 19.0012 84.3796 21.3035 87.4304 21.3035C89.6131 21.3035 91.3778 20.0172 91.9756 18.1329H94.9359C94.2476 21.512 91.2873 24.0251 87.4006 24.0251C82.7065 24.0251 79.5664 20.5555 79.5664 16.1891C79.5664 11.8226 82.7065 8.38281 87.4006 8.38281C91.2873 8.38281 94.2476 10.8352 94.9359 14.1857H91.9756V14.1845Z" fill="white"/>
<path id="Vector_13" d="M106.896 8.80078V11.6724H104.086C101.395 11.6724 99.5705 13.4376 99.5705 16.4879V23.6058H96.7305V8.80078H99.4812V11.3425H99.6003C100.378 9.66788 101.933 8.80078 104.055 8.80078H106.895H106.896Z" fill="white"/>
<path id="Vector_14" d="M106.656 16.1879C106.656 11.8214 109.856 8.38159 114.67 8.38159C119.485 8.38159 122.564 11.8214 122.564 16.1879C122.564 20.5543 119.395 24.0239 114.67 24.0239C109.945 24.0239 106.656 20.5245 106.656 16.1879ZM119.723 16.1879C119.723 13.3769 117.69 11.1032 114.669 11.1032C111.648 11.1032 109.526 13.3757 109.526 16.1879C109.526 19 111.559 21.3023 114.669 21.3023C117.779 21.3023 119.723 18.969 119.723 16.1879Z" fill="white"/>
<path id="Vector_15" d="M135.78 8.80078V11.5521H127.617C126.869 11.5521 126.36 12.031 126.36 12.8087C126.36 13.496 126.78 13.945 127.348 14.0653L133.448 15.441C135.541 15.9198 136.826 17.4753 136.826 19.4489C136.826 21.8418 135.063 23.6058 132.61 23.6058H123.968V20.8544H132.55C133.268 20.8544 133.836 20.3458 133.836 19.4787C133.836 18.7903 133.447 18.3127 132.819 18.1626L126.689 16.8167C124.655 16.3676 123.369 14.7835 123.369 12.8385C123.369 10.5052 125.134 8.80078 127.556 8.80078H135.778H135.78Z" fill="white"/>
<path id="Vector_16" d="M149.953 8.80078V11.5521H141.79C141.042 11.5521 140.534 12.031 140.534 12.8087C140.534 13.496 140.953 13.945 141.521 14.0653L147.621 15.441C149.715 15.9198 151.001 17.4753 151.001 19.4489C151.001 21.8418 149.236 23.6058 146.784 23.6058H138.143V20.8544H146.725C147.443 20.8544 148.011 20.3458 148.011 19.4787C148.011 18.7903 147.621 18.3127 146.994 18.1626L140.864 16.8167C138.83 16.3676 137.545 14.7835 137.545 12.8385C137.545 10.5052 139.308 8.80078 141.732 8.80078H149.954H149.953Z" fill="white"/>
</g>
</g>
</svg>
