<svg width="180" height="31" viewBox="0 0 180 31" fill="none" xmlns="http://www.w3.org/2000/svg">
<g id="Group 25">
<g id="Group">
<path id="Vector" d="M0.154297 9.17627H15.1199C14.4087 12.6591 11.3284 15.2801 7.6378 15.2801C3.94715 15.2801 0.865457 12.6605 0.155717 9.17627H0.154297Z" fill="#1481BA"/>
<path id="Vector_2" d="M15.1199 6.10379H0.154297C0.865456 2.62098 3.94573 0 7.63638 0C11.327 0 14.4087 2.62098 15.1185 6.10379H15.1199Z" fill="#1481BA"/>
<path id="Vector_3" d="M11.7945 16.5906L1.22927 27.1583C0.451394 25.9614 0 24.5331 0 23.0011C0 18.7814 3.41953 15.3611 7.63822 15.3611C9.17126 15.3611 10.5993 15.8126 11.7945 16.5921V16.5906Z" fill="#1481BA"/>
<path id="Vector_4" d="M15.2748 22.9996V23.0394C15.2535 27.2406 11.8411 30.6397 7.63655 30.6397C6.06235 30.6397 4.59886 30.164 3.38379 29.3462L13.9816 18.7458C14.7978 19.9626 15.2748 21.4265 15.2748 22.9996Z" fill="#1481BA"/>
<path id="Vector_5" d="M30.5497 7.67978C30.5497 11.3727 27.9308 14.4537 24.4474 15.1636V11.2691C24.4474 8.42093 22.1308 6.10379 19.2833 6.10379H15.4365C16.1619 2.63943 19.2336 0.0383301 22.9115 0.0383301C27.1302 0.0383301 30.5497 3.45867 30.5497 7.67978Z" fill="#1481BA"/>
<path id="Vector_6" d="M21.3777 15.5527V30.5233C17.8958 29.812 15.2754 26.731 15.2754 23.0394V22.9997C15.2938 19.3223 17.9071 16.2612 21.3777 15.5542V15.5527Z" fill="#1481BA"/>
<path id="Vector_7" d="M30.5496 23.0394C30.5496 26.7324 27.9307 29.8134 24.4473 30.5233V15.5527C27.9292 16.2641 30.5496 19.3451 30.5496 23.038V23.0394Z" fill="#1481BA"/>
</g>
<g id="Group_2">
<path id="Vector_8" d="M42.7178 4.25098H46.1756V28.138H42.7178V4.25098Z" fill="white"/>
<path id="Vector_9" d="M66.1922 18.0131V28.1378H62.8067V18.6194C62.8067 15.5526 61.0239 13.2709 57.9592 13.2709C54.7157 13.2709 52.5056 15.8025 52.5056 19.3321V28.1378H49.1201V10.4895H52.4346V12.8777H52.5765C53.9307 11.1668 56.0699 9.98975 58.6718 9.98975C63.163 9.98975 66.1922 13.1275 66.1922 18.0117V18.0131Z" fill="white"/>
<path id="Vector_10" d="M86.2947 18.0131V28.1378H82.9093V18.6194C82.9093 15.5526 81.1264 13.2709 78.0618 13.2709C74.8182 13.2709 72.6081 15.8025 72.6081 19.3321V28.1378H69.2227V10.4895H72.5371V12.8777H72.6791C74.0333 11.1668 76.1724 9.98975 78.7743 9.98975C83.2656 9.98975 86.2947 13.1275 86.2947 18.0117V18.0131Z" fill="white"/>
<path id="Vector_11" d="M92.7087 2.46899V7.63855H89.3232V2.46899H92.7087ZM92.7087 10.491V28.1393H89.3232V10.491H92.7087Z" fill="white"/>
<path id="Vector_12" d="M109.639 16.9086C108.926 14.8399 106.931 13.237 104.221 13.237C100.586 13.237 98.2321 15.946 98.2321 19.2982C98.2321 22.6503 100.584 25.3949 104.221 25.3949C106.823 25.3949 108.926 23.8615 109.639 21.6153H113.168C112.347 25.6433 108.819 28.6391 104.185 28.6391C98.5898 28.6391 94.8467 24.5032 94.8467 19.2982C94.8467 14.0931 98.5898 9.99268 104.185 9.99268C108.819 9.99268 112.347 12.9161 113.168 16.91H109.639V16.9086Z" fill="white"/>
<path id="Vector_13" d="M127.425 10.491V13.9141H124.075C120.867 13.9141 118.692 16.0183 118.692 19.6545V28.1393H115.307V10.491H118.586V13.5209H118.728C119.655 11.5246 121.508 10.491 124.038 10.491H127.423H127.425Z" fill="white"/>
<path id="Vector_14" d="M127.14 19.2967C127.14 14.0916 130.954 9.99121 136.693 9.99121C142.432 9.99121 146.102 14.0916 146.102 19.2967C146.102 24.5017 142.325 28.6377 136.693 28.6377C131.06 28.6377 127.14 24.4662 127.14 19.2967ZM142.716 19.2967C142.716 15.9459 140.293 13.2355 136.691 13.2355C133.09 13.2355 130.561 15.9445 130.561 19.2967C130.561 22.6489 132.984 25.3934 136.691 25.3934C140.399 25.3934 142.716 22.612 142.716 19.2967Z" fill="white"/>
<path id="Vector_15" d="M161.856 10.491V13.7707H152.126C151.234 13.7707 150.628 14.3415 150.628 15.2687C150.628 16.0879 151.128 16.6232 151.805 16.7666L159.077 18.4064C161.572 18.9772 163.104 20.8315 163.104 23.1841C163.104 26.0365 161.002 28.1393 158.078 28.1393H147.777V24.8595H158.007C158.863 24.8595 159.54 24.2533 159.54 23.2196C159.54 22.399 159.076 21.8296 158.327 21.6507L151.02 20.0463C148.596 19.5111 147.062 17.6227 147.062 15.3041C147.062 12.5227 149.166 10.491 152.053 10.491H161.855H161.856Z" fill="white"/>
<path id="Vector_16" d="M178.751 10.491V13.7707H169.02C168.129 13.7707 167.523 14.3415 167.523 15.2687C167.523 16.0879 168.023 16.6232 168.7 16.7666L175.972 18.4064C178.467 18.9772 180 20.8315 180 23.1841C180 26.0365 177.896 28.1393 174.974 28.1393H164.673V24.8595H174.903C175.759 24.8595 176.436 24.2533 176.436 23.2196C176.436 22.399 175.972 21.8296 175.224 21.6507L167.916 20.0463C165.492 19.5111 163.96 17.6227 163.96 15.3041C163.96 12.5227 166.062 10.491 168.951 10.491H178.752H178.751Z" fill="white"/>
</g>
</g>
</svg>
