<svg width="190" height="191" viewBox="0 0 190 191" fill="none" xmlns="http://www.w3.org/2000/svg">
<g id="Group">
<path id="Vector" d="M0.959717 57.0708H94.0362C89.6133 78.7317 70.4559 95.0326 47.5024 95.0326C24.5489 95.0326 5.38268 78.7405 0.968547 57.0708H0.959717Z" fill="white"/>
<path id="Vector_2" d="M94.0362 37.9618H0.959717C5.38268 16.3009 24.54 0 47.4936 0C70.4471 0 89.6133 16.3009 94.0274 37.9618H94.0362Z" fill="white"/>
<path id="Vector_3" d="M73.3541 103.183L7.64528 168.908C2.80739 161.464 0 152.581 0 143.053C0 116.809 21.2673 95.5364 47.5049 95.5364C57.0395 95.5364 65.9207 98.3444 73.3541 103.192V103.183Z" fill="white"/>
<path id="Vector_4" d="M94.9996 143.043V143.29C94.8672 169.42 73.644 190.559 47.4947 190.559C37.7041 190.559 28.6022 187.601 21.0452 182.515L86.9571 116.587C92.0333 124.155 94.9996 133.259 94.9996 143.043Z" fill="white"/>
<path id="Vector_5" d="M190 47.7636C190 70.7314 173.712 89.8933 152.047 94.3085V70.0868C152.047 52.373 137.64 37.9619 119.93 37.9619H96.0054C100.517 16.4158 119.621 0.238525 142.495 0.238525C168.733 0.238525 190 21.5109 190 47.7636Z" fill="white"/>
<path id="Vector_6" d="M132.956 96.7283V189.836C111.3 185.412 95.0034 166.25 95.0034 143.291V143.044C95.1182 120.173 111.371 101.135 132.956 96.7371V96.7283Z" fill="white"/>
<path id="Vector_7" d="M189.999 143.291C189.999 166.259 173.711 185.42 152.047 189.836V96.7283C173.702 101.152 189.999 120.314 189.999 143.282V143.291Z" fill="white"/>
</g>
</svg>
