<svg width="25" height="25" viewBox="0 0 25 25" fill="none" xmlns="http://www.w3.org/2000/svg">
<g id="Link - View Pipe on LinkedIn &#226;&#134;&#146; SVG" clip-path="url(#clip0_179_2967)">
<g id="Clip path group">
<mask id="mask0_179_2967" style="mask-type:luminance" maskUnits="userSpaceOnUse" x="0" y="0" width="25" height="25">
<g id="clip0_2713_11489">
<path id="Vector" d="M20.6396 0.389648H4.63965C2.43051 0.389648 0.639648 2.18051 0.639648 4.38965V20.3896C0.639648 22.5988 2.43051 24.3896 4.63965 24.3896H20.6396C22.8488 24.3896 24.6396 22.5988 24.6396 20.3896V4.38965C24.6396 2.18051 22.8488 0.389648 20.6396 0.389648Z" fill="white"/>
</g>
</mask>
<g mask="url(#mask0_179_2967)">
<g id="Group">
<path id="Vector_2" fill-rule="evenodd" clip-rule="evenodd" d="M1.18462 3.1197C0.639648 4.18926 0.639648 5.58939 0.639648 8.38965V16.3896C0.639648 19.1899 0.639648 20.59 1.18462 21.6596C1.66398 22.6004 2.42889 23.3653 3.3697 23.8446C4.43926 24.3896 5.83939 24.3896 8.63965 24.3896H16.6396C19.4399 24.3896 20.84 24.3896 21.9096 23.8446C22.8504 23.3653 23.6153 22.6004 24.0946 21.6596C24.6396 20.59 24.6396 19.1899 24.6396 16.3896V8.38965C24.6396 5.58939 24.6396 4.18926 24.0946 3.1197C23.6153 2.17889 22.8504 1.41398 21.9096 0.934615C20.84 0.389648 19.4399 0.389648 16.6396 0.389648H8.63965C5.83939 0.389648 4.43926 0.389648 3.3697 0.934615C2.42889 1.41398 1.66398 2.17889 1.18462 3.1197ZM17.064 18.6403H19.8123L19.8134 13.7849C19.8134 11.4013 19.2999 9.56912 16.5144 9.56912C15.9918 9.54972 15.4737 9.67244 15.0153 9.92421C14.5569 10.176 14.1753 10.5473 13.9113 10.9988H13.8744V9.78928H11.236V18.64H13.9843V14.2616C13.9843 13.107 14.2033 11.9888 15.6347 11.9888C17.0457 11.9888 17.064 13.31 17.064 14.3363V18.6403ZM7.24906 8.31081C7.51137 8.48601 7.81973 8.57949 8.13516 8.57944C8.3446 8.5794 8.55198 8.53811 8.74546 8.45792C8.93894 8.37774 9.11474 8.26023 9.26281 8.1121C9.41088 7.96397 9.52831 7.78813 9.60842 7.59462C9.68854 7.4011 9.72976 7.1937 9.72972 6.98426C9.72966 6.66882 9.63607 6.36048 9.46078 6.09823C9.28549 5.83598 9.03637 5.63161 8.74493 5.51094C8.45349 5.39028 8.13282 5.35876 7.82347 5.42035C7.51411 5.48195 7.22996 5.6339 7.00696 5.85699C6.78396 6.08008 6.63211 6.36429 6.57063 6.67368C6.50915 6.98307 6.54079 7.30374 6.66156 7.59515C6.78232 7.88655 6.98676 8.13561 7.24906 8.31081ZM6.75818 18.6403H9.50928V9.78928H6.75818V18.6403Z" fill="#494C5A"/>
</g>
</g>
</g>
</g>
<defs>
<clipPath id="clip0_179_2967">
<rect width="24" height="24" fill="white" transform="translate(0.639648 0.389648)"/>
</clipPath>
</defs>
</svg>
