<svg width="24" height="25" viewBox="0 0 24 25" fill="none" xmlns="http://www.w3.org/2000/svg">
<g id="Link - View Pipe on X &#226;&#134;&#146; SVG" clip-path="url(#clip0_179_2961)">
<g id="Clip path group">
<mask id="mask0_179_2961" style="mask-type:luminance" maskUnits="userSpaceOnUse" x="0" y="0" width="24" height="25">
<g id="clip0_5471_1893">
<path id="Vector" d="M20 0.389648H4C1.79086 0.389648 0 2.18051 0 4.38965V20.3896C0 22.5988 1.79086 24.3896 4 24.3896H20C22.2091 24.3896 24 22.5988 24 20.3896V4.38965C24 2.18051 22.2091 0.389648 20 0.389648Z" fill="white"/>
</g>
</mask>
<g mask="url(#mask0_179_2961)">
<g id="Group">
<path id="Vector_2" fill-rule="evenodd" clip-rule="evenodd" d="M0.544967 3.1197C0 4.18926 0 5.58939 0 8.38965V16.3896C0 19.1899 0 20.59 0.544967 21.6596C1.02433 22.6004 1.78924 23.3653 2.73005 23.8446C3.79961 24.3896 5.19974 24.3896 8 24.3896H16C18.8003 24.3896 20.2004 24.3896 21.27 23.8446C22.2108 23.3653 22.9757 22.6004 23.455 21.6596C24 20.59 24 19.1899 24 16.3896V8.38965C24 5.58939 24 4.18926 23.455 3.1197C22.9757 2.17889 22.2108 1.41398 21.27 0.934615C20.2004 0.389648 18.8003 0.389648 16 0.389648H8C5.19974 0.389648 3.79961 0.389648 2.73005 0.934615C1.78924 1.41398 1.02433 2.17889 0.544967 3.1197ZM10.4394 13.0599L5.03413 5.88965H9.20008L12.7437 10.5903L17.1294 5.88965H18.3536L13.2906 11.316L19 18.8896H14.834L10.9864 13.7856L6.22419 18.8896H5L10.4394 13.0599ZM8.74824 6.78427H6.83439L15.2856 17.9948H17.1995L8.74824 6.78427Z" fill="#494C5A"/>
</g>
</g>
</g>
</g>
<defs>
<clipPath id="clip0_179_2961">
<rect width="24" height="24" fill="white" transform="translate(0 0.389648)"/>
</clipPath>
</defs>
</svg>
