<svg width="124" height="41" viewBox="0 0 124 41" fill="none" xmlns="http://www.w3.org/2000/svg">
<g id="UFM">
<path d="M0 22.6681V0H8.46355V22.5497C8.46355 28.2907 11.8963 32.5521 17.5781 32.5521C23.3783 32.5521 26.7519 28.2316 26.7519 22.5497V0H35.1563V22.6681C35.1563 33.6766 28.2907 40.7197 17.5781 40.7197C6.98391 40.7197 0 33.6766 0 22.6681Z" fill="#555555"/>
<path d="M73.048 0V8.16762H51.1493V16.5128H70.8582V24.3253H51.1493V39.6544H42.745V0H73.048Z" fill="#555555"/>
<path d="M123.569 0V39.6544H115.165V12.429L103.861 39.6544H98.4747L87.2295 12.5474V39.6544H78.8251V0H90.4847L101.256 26.3968L112.028 0H123.569Z" fill="#555555"/>
</g>
</svg>
