<svg width="81" height="79" viewBox="0 0 81 79" fill="none" xmlns="http://www.w3.org/2000/svg">
<g id="MTV_Base_2013_logo 1" clip-path="url(#clip0_686_1057)">
<path id="Vector" d="M81 51.7529H0V78.6774H81V51.7529Z" fill="#DADADA"/>
<path id="Vector_2" d="M21.5461 62.9584C21.5461 63.1196 21.4651 63.2002 21.4651 63.2808C21.4651 63.3614 21.3841 63.442 21.3841 63.6033C21.5461 63.6033 21.6271 63.5227 21.7081 63.5227H22.0321H22.7611C23.1661 63.5227 23.4901 63.5226 23.6521 63.442C23.8141 63.3614 23.9761 63.2808 24.1381 63.1196C24.3811 62.8778 24.5431 62.4747 24.5431 62.0716C24.5431 61.2655 24.0571 60.8624 23.0851 60.8624H21.8701L21.5461 62.9584ZM20.6551 68.8431C20.6551 69.0043 20.5741 69.1655 20.5741 69.2461C20.5741 69.3267 20.4931 69.4073 20.4931 69.5686C20.6551 69.5686 20.7361 69.488 20.8171 69.488H21.1411H21.9511C22.4371 69.488 22.7611 69.488 23.0851 69.4073C23.3281 69.3267 23.5711 69.2461 23.7331 69.1655C24.1381 68.8431 24.3811 68.44 24.3811 67.8757C24.3811 67.6339 24.3001 67.392 24.2191 67.1502C24.0571 66.9084 23.8951 66.7471 23.7331 66.6665C23.6521 66.5859 23.4091 66.5053 23.1661 66.5053C22.9231 66.5053 22.6801 66.4247 22.3561 66.4247H21.0601L20.6551 68.8431ZM18.3871 58.041H24.0571C24.3811 58.041 24.7051 58.041 25.0291 58.1216C25.3531 58.2022 25.6771 58.2022 26.0011 58.2829C26.8111 58.4441 27.3781 58.8471 27.8641 59.4114C28.2691 59.9757 28.5121 60.7012 28.5121 61.5073C28.5121 61.991 28.4311 62.4747 28.1881 62.9584C28.0261 63.442 27.7021 63.7645 27.3781 64.0869C27.2161 64.2482 26.9731 64.4094 26.7301 64.49C26.4871 64.5706 26.2441 64.7318 25.8391 64.8124V64.8931C26.3251 65.0543 26.7301 65.2155 26.9731 65.4573C27.2971 65.6186 27.5401 65.8604 27.7831 66.1022C27.9451 66.3441 28.1071 66.5859 28.1881 66.9084C28.2691 67.2308 28.3501 67.5533 28.3501 67.9563C28.3501 68.6818 28.1881 69.3267 27.9451 69.9716C27.6211 70.6165 27.2161 71.1002 26.7301 71.5033C26.3251 71.8257 25.8391 72.0675 25.2721 72.1482C24.7051 72.3094 23.9761 72.39 23.1661 72.39H16.0381L18.3871 58.041Z" fill="#1E001E"/>
<path id="Vector_3" d="M37.3408 66.3441H37.8268C37.9078 66.3441 38.0698 66.3441 38.2318 66.4247C38.1508 66.2635 38.0698 66.1022 38.0698 66.0216C38.0698 65.941 37.9888 65.7798 37.9888 65.6186L37.6648 63.9257C37.5838 63.6033 37.5838 63.2808 37.5028 63.039C37.5028 62.7971 37.4218 62.5553 37.4218 62.3941C37.4218 62.1522 37.4218 61.991 37.3408 61.7492C37.3408 61.5073 37.3408 61.2655 37.3408 60.8624H37.1788C37.0978 61.1849 37.0168 61.5073 36.9358 61.7492C36.8548 61.991 36.7738 62.2329 36.6928 62.4747C36.6118 62.7165 36.5308 62.8778 36.4498 63.1196C36.3688 63.3614 36.2068 63.6033 36.0448 63.9257L35.6398 64.9737C35.5588 65.1349 35.4778 65.2961 35.4778 65.3767C35.3968 65.4573 35.3968 65.6186 35.3158 65.6992C35.2348 65.7798 35.2348 65.941 35.1538 66.0216C35.0728 66.1829 34.9918 66.2635 34.9108 66.4247C35.2348 66.4247 35.5588 66.3441 35.7208 66.3441H36.4498H37.3408ZM35.3158 58.041H40.0948L43.1728 72.39H39.2038L38.6368 69.5686H33.5338L32.2378 72.39H27.8638L35.3158 58.041Z" fill="#1E001E"/>
<path id="Vector_4" d="M44.631 67.4728C45.117 68.1177 45.684 68.6014 46.251 68.9239C46.818 69.2463 47.385 69.4075 48.033 69.4075C48.519 69.4075 48.843 69.3269 49.086 69.0851C49.329 68.8432 49.491 68.5208 49.491 68.1983C49.491 67.8759 49.329 67.6341 49.086 67.3922C48.843 67.1504 48.438 66.8279 47.79 66.5861C47.061 66.183 46.494 65.8606 46.089 65.5381C45.684 65.2157 45.36 64.8932 45.117 64.5708C44.955 64.329 44.793 64.0065 44.712 63.6841C44.631 63.3616 44.55 63.0392 44.55 62.7167C44.55 61.3463 44.955 60.2177 45.765 59.4116C46.251 58.9279 46.818 58.5249 47.466 58.2024C48.195 57.88 48.843 57.7188 49.491 57.7188C50.463 57.7188 51.273 57.88 52.083 58.1218C52.812 58.4443 53.541 58.8473 54.27 59.4922L52.488 62.3137C52.002 61.83 51.516 61.4269 51.192 61.2657C50.787 61.1045 50.382 61.0239 49.896 61.0239C49.491 61.0239 49.248 61.1045 49.005 61.3463C48.762 61.5075 48.681 61.83 48.681 62.1524C48.681 62.6361 49.086 63.1198 49.977 63.5228C50.463 63.7647 50.787 64.0065 51.111 64.1677C51.435 64.329 51.678 64.4096 51.759 64.4902C52.326 64.8126 52.731 65.2963 53.136 65.8606C53.46 66.4249 53.622 67.0698 53.622 67.7953C53.622 68.6014 53.541 69.2463 53.298 69.8106C53.136 70.3749 52.812 70.8585 52.326 71.3422C51.84 71.8259 51.273 72.229 50.463 72.5514C49.734 72.8739 48.924 72.9545 48.195 72.9545C47.79 72.9545 47.385 72.9545 47.061 72.8739C46.737 72.8739 46.413 72.7932 46.089 72.7126C45.765 72.632 45.522 72.5514 45.198 72.3902C44.955 72.229 44.631 72.1483 44.307 71.9065C43.902 71.6647 43.659 71.5034 43.416 71.2616C43.173 71.0198 42.93 70.7779 42.606 70.4555L44.631 67.4728Z" fill="#1E001E"/>
<path id="Vector_5" d="M56.538 58.041H64.881L64.395 61.3461H60.021L59.778 62.9584C59.778 63.1196 59.697 63.2002 59.697 63.2808C59.697 63.3614 59.616 63.442 59.616 63.6033C59.778 63.6033 59.859 63.5227 59.94 63.5227H60.345H63.99L63.423 66.7471H59.13L58.887 68.44C58.887 68.6012 58.806 68.6818 58.806 68.7624C58.806 68.8431 58.725 68.9237 58.725 69.0849C58.887 69.0849 58.968 69.0043 59.049 69.0043H59.373H63.099L62.613 72.3094H54.27L56.538 58.041Z" fill="#1E001E"/>
<path id="Vector_6" d="M57.186 49.8184C57.024 48.6092 56.862 46.7551 56.862 45.2235C56.862 44.2561 57.024 40.3061 57.024 37.1622C57.024 34.502 56.457 29.7459 56.457 27.1663C56.457 25.6347 56.538 23.5388 56.376 22.7327C57.591 21.9265 58.725 21.4429 62.127 19.3469C63.261 18.702 65.367 17.5735 65.367 16.2031C65.367 15.5582 65.205 15.2357 64.314 14.5102C63.747 14.0265 63.099 13.8653 62.37 13.8653C60.588 13.8653 59.859 15.6388 58.401 16.5255C56.133 17.8959 54.999 18.5408 54.513 18.7827C54.351 18.702 53.541 18.2184 52.326 18.2184C51.03 18.2184 49.572 18.7827 49.572 20.4755C49.572 21.201 49.815 22.0878 48.762 22.5714C48.195 22.8939 45.441 24.5061 42.444 26.2796C39.933 27.8112 38.799 27.65 37.746 28.2949C36.774 28.8592 36.531 29.5847 36.531 30.2296C36.531 30.7939 36.855 31.5194 37.017 31.6806C37.665 32.5673 38.313 32.9704 39.366 32.9704C41.148 32.9704 42.606 31.4388 45.441 29.4235C47.142 28.2143 48.762 26.9245 49.653 26.9245C50.463 26.9245 51.03 27.5694 51.03 30.0684C51.03 38.6133 50.544 39.9837 50.544 45.8684C50.544 46.9163 50.544 48.9316 50.625 49.7378H46.089V35.7918L37.341 43.1276L28.593 35.7918V49.8184H0V0H27.621L37.098 9.99592L46.656 0H74.52V21.2816C73.629 22.652 70.956 27.2469 69.174 31.9224C68.607 33.4541 68.283 34.5827 67.554 34.5827C66.663 34.5827 66.663 33.7765 66.582 32.9704C66.42 31.3582 66.015 28.2949 65.853 27.1663C65.529 24.9898 65.124 22.652 62.613 22.652C60.831 22.652 58.887 23.6194 58.887 26.3602C58.887 27.8918 59.697 30.552 60.993 34.0184C61.479 35.3888 64.314 42.6439 64.719 43.6918C65.448 45.6265 66.501 46.1102 68.04 46.1102C70.065 46.1102 70.794 45.3847 71.604 42.5633C72.333 40.1449 73.548 36.1949 74.52 33.6959V49.8184H57.186ZM81 22.1684V49.8184H76.464V29.5847C77.436 27.4888 79.785 23.7806 81 22.1684ZM76.464 18.4602V0L81 2.74082V12.898C79.866 14.0265 77.517 16.848 76.464 18.4602ZM39.69 4.51429L37.179 7.17449L30.375 0L39.042 3.78878L39.69 4.51429ZM40.014 43.3694H43.173L44.064 42.6439V39.9837L40.014 43.3694ZM30.375 49.8184H34.101V43.1276L30.375 39.9837V49.8184Z" fill="#1E001E"/>
</g>
<defs>
<clipPath id="clip0_686_1057">
<rect width="81" height="79" fill="white"/>
</clipPath>
</defs>
</svg>
