<svg width="84" height="84" viewBox="0 0 84 84" fill="none" xmlns="http://www.w3.org/2000/svg">
<g id="Group 63">
<path id="Vector" d="M24.3739 22.5662C23.8072 23.6657 24.0043 24.7024 24.6893 25.6595C25.8079 27.2225 27.3562 28.2914 29.097 28.9827C31.3348 29.8713 33.6363 30.6086 35.9345 31.3344C42.292 33.3423 48.6678 35.2923 55.0247 37.3018C58.1793 38.299 60.7965 40.0336 62.4125 43.037C63.2268 44.5506 63.6812 46.1793 63.81 47.8769C64.0576 51.1417 63.9398 54.3947 63.1704 57.5943C62.7102 59.5084 61.8559 61.2274 60.4642 62.6498C60.2728 62.8453 60.0646 63.0244 59.761 63.3073C59.8896 62.8131 60.0232 62.4693 60.0627 62.115C60.1665 61.1863 59.7975 60.398 59.2206 59.7052C57.7579 57.9483 55.8367 56.843 53.7235 56.1202C49.3323 54.6183 44.9098 53.2075 40.4977 51.7667C36.5804 50.4874 32.6509 49.2449 28.7429 47.9379C23.6671 46.2404 20.5827 42.1486 20.253 36.8251C20.0794 34.0231 20.0815 31.2418 20.8208 28.5039C21.439 26.2149 22.4408 24.1493 24.2717 22.5254C24.3433 22.5432 24.3586 22.5547 24.3739 22.5662ZM52.2684 43.2962C52.2058 43.116 52.0999 42.9384 52.0892 42.7551C52.0633 42.3146 52.082 41.8714 52.1557 41.4098C52.2046 41.4186 52.2536 41.4273 52.3484 41.4952C52.4754 41.4718 52.6024 41.4485 52.7765 41.3524C52.7976 41.2057 52.8186 41.0591 52.8462 40.8678C52.5186 40.8678 52.2666 40.8678 52.0037 40.8678C51.9725 40.6417 51.9461 40.4499 51.9079 40.1724C51.6388 40.2686 51.4098 40.3504 51.1142 40.4976C51.1 40.9949 51.0664 41.4926 51.0771 41.9893C51.0869 42.4409 51.1448 42.8914 51.2204 43.4127C51.4696 43.9568 51.9738 44.1801 52.5921 43.9642C52.7282 43.9166 52.7999 43.6844 52.9396 43.4815C52.6407 43.4294 52.4799 43.4014 52.2684 43.2962ZM55.7288 40.9358C55.7069 41.7385 55.685 42.5412 55.5933 43.373C55.5443 43.3684 55.4953 43.3638 55.4043 43.2974C55.2688 43.3041 55.1333 43.3108 54.9143 43.2891C54.8041 42.4951 54.6939 41.7012 54.582 40.8954C54.4195 40.8954 54.2228 40.8954 53.993 40.8954C53.993 41.5895 53.961 42.2596 54.0021 42.9253C54.0414 43.5602 54.5004 43.9559 55.1543 43.9993C55.352 44.0124 55.5513 44.0013 55.7521 44.0013C55.696 44.3777 55.696 44.3777 54.176 44.3915C54.1947 44.554 54.1747 44.8275 54.2369 44.8477C54.6267 44.9742 55.0547 45.1645 55.432 45.1023C55.8939 45.0261 56.4873 44.8618 56.5122 44.2337C56.5562 43.124 56.5246 42.0113 56.5246 40.887C56.2549 40.887 56.0327 40.887 55.7288 40.9358ZM43.8988 43.9646C44.1263 43.8548 44.547 43.7523 44.5514 43.6343C44.599 42.3592 44.5811 41.0816 44.5811 39.8053C44.3186 39.8053 44.1247 39.8053 43.8805 39.8053C43.8805 40.1643 43.8805 40.491 43.8805 40.8731C43.5935 40.8731 43.3265 40.8028 43.127 40.8889C42.7919 41.0335 42.3666 41.2059 42.2122 41.4922C41.4732 42.8624 42.2709 44.0717 43.8988 43.9646ZM30.69 41.7562C30.681 42.1448 30.6275 42.5388 30.6727 42.921C30.7543 43.6126 31.2367 44 31.9315 44.0037C32.8482 44.0086 33.2747 43.4541 33.2581 42.2791C33.2477 41.5453 32.921 41.0414 32.3618 40.8965C31.6217 40.7048 31.0829 40.9563 30.69 41.7562ZM39.0545 42.6173C39.0545 42.4123 39.06 42.2071 39.0532 42.0023C39.0405 41.6208 39.1713 41.4155 39.6019 41.4249C40.0108 41.4338 40.1083 41.64 40.1036 41.9914C40.095 42.6201 40.1011 43.249 40.1011 43.8971C40.3789 43.8971 40.6095 43.8971 40.863 43.8971C40.863 43.2028 40.888 42.5501 40.8562 41.9001C40.822 41.2007 40.4215 40.8754 39.6715 40.869C38.7764 40.8613 38.3535 41.1352 38.3136 41.8283C38.2744 42.5107 38.3051 43.197 38.3051 43.8905C38.5787 43.8905 38.8065 43.8905 39.0545 43.8905C39.0545 43.4699 39.0545 43.0977 39.0545 42.6173ZM35.1754 42.5727C35.1754 42.0195 35.1754 41.4662 35.1754 40.8949C34.924 40.8949 34.7296 40.8949 34.4974 40.8949C34.4974 41.6196 34.4641 42.3232 34.5077 43.0219C34.5442 43.6061 35.0844 44.0011 35.7289 44.0008C36.3751 44.0005 36.9104 43.6085 36.9476 43.0205C36.9919 42.322 36.958 41.6186 36.958 40.8945C36.7264 40.8945 36.5317 40.8945 36.2806 40.8945C36.2806 41.466 36.2922 42.0195 36.2764 42.5722C36.2664 42.9196 36.2901 43.3128 35.778 43.352C35.2778 43.3903 35.2024 43.0545 35.1754 42.5727ZM28.9654 42.3288C28.6418 42.1125 28.3182 41.8961 27.9946 41.6798C28.0172 41.6234 28.0397 41.5669 28.0623 41.5105C28.5059 41.5105 28.9495 41.5105 29.3684 41.5105C29.5191 41.1202 29.4032 40.9389 29.0709 40.9005C28.8678 40.8771 28.662 40.873 28.4572 40.8699C28.004 40.863 27.5134 40.8368 27.348 41.3867C27.1793 41.9473 27.4971 42.2943 27.9643 42.5558C28.2565 42.7194 28.5256 42.9245 28.805 43.1109C28.7871 43.177 28.7692 43.243 28.7514 43.309C28.53 43.3375 28.3091 43.384 28.0871 43.3895C27.8505 43.3955 27.6129 43.3627 27.337 43.3443C27.3462 43.5529 27.3531 43.7102 27.3615 43.9C27.7448 43.9366 28.0943 43.9932 28.4445 43.9972C28.8759 44.0021 29.2883 43.8791 29.4346 43.4261C29.5716 43.0018 29.4531 42.6142 28.9654 42.3288ZM45.8269 42.1997C45.829 43.7543 46.5256 44.3204 47.8909 43.8639C47.8909 43.6968 47.8909 43.5261 47.8909 43.3764C47.406 43.2174 46.6634 43.6856 46.5982 42.78C46.5724 42.4217 46.5353 41.9074 46.7375 41.7282C47.0032 41.4926 47.5 41.5176 48.0596 41.3951C47.8887 41.1984 47.7745 40.9356 47.6103 40.8995C46.5778 40.6721 46.0294 41.0623 45.8269 42.1997ZM49.8719 43.3913C49.8719 42.5632 49.8719 41.7351 49.8719 40.8964C49.6036 40.8964 49.4089 40.8964 49.197 40.8964C49.197 41.912 49.197 42.9024 49.197 43.9031C49.5407 43.9221 49.9373 44.0913 49.8719 43.3913ZM49.1485 40.1574C49.2324 40.7279 49.6188 40.3143 49.9159 40.4585C49.901 40.1825 49.8908 39.9923 49.8776 39.7475C49.5896 39.8653 49.2091 39.5318 49.1485 40.1574Z" fill="black"/>
<path id="Vector_2" d="M22.1431 80.9662C20.9719 80.9362 20.2277 80.3521 20.0126 79.3334C19.8211 78.4269 20.2684 77.542 21.1267 77.1294C22.1633 76.6312 23.4255 77.1249 23.8525 78.1955C24.2806 79.2691 23.7106 80.5074 22.6229 80.8593C22.4821 80.9048 22.3346 80.9292 22.1431 80.9662Z" fill="black"/>
<path id="Vector_3" d="M64.1481 10.5942C64.43 11.7704 64.0512 12.6554 63.1042 13.1137C62.2886 13.5084 61.2413 13.2785 60.6889 12.5624C60.1805 11.9033 60.0732 11.1786 60.4465 10.421C60.8042 9.69496 61.3908 9.29321 62.2159 9.28623C63.1361 9.27844 63.7552 9.73414 64.1481 10.5942Z" fill="black"/>
<path id="Vector_4" d="M60.3764 17.4389C59.9121 16.1744 60.4084 15.045 61.5652 14.6568C62.6206 14.3028 63.7586 14.8812 64.1035 15.947C64.4107 16.8964 63.9536 17.9614 63.0572 18.3849C62.0558 18.858 61.0262 18.5077 60.3764 17.4389Z" fill="black"/>
<path id="Vector_5" d="M60.3147 6.45853C60.5923 5.35869 61.4167 4.68983 62.3888 4.74102C63.347 4.79149 64.1729 5.53616 64.2968 6.46143C64.43 7.4557 63.9083 8.33069 62.9852 8.66134C61.5695 9.16845 60.2442 8.10154 60.3147 6.45853Z" fill="black"/>
<path id="Vector_6" d="M25.7996 64.6256C24.791 64.1557 24.2806 63.2937 24.4464 62.4032C24.6228 61.4554 25.3818 60.7516 26.3179 60.7071C27.1528 60.6673 27.7995 61.0287 28.2032 61.7556C28.6225 62.5108 28.5601 63.2751 28.0264 63.9447C27.4691 64.6439 26.7295 64.9063 25.7996 64.6256Z" fill="black"/>
<path id="Vector_7" d="M24.124 71.3014C24.5629 70.292 25.4233 69.7785 26.3495 69.945C27.2677 70.11 27.9675 70.8468 28.0282 71.7124C28.1011 72.7532 27.5834 73.571 26.6151 73.8506C24.8739 74.3533 23.6445 72.6778 24.124 71.3014Z" fill="black"/>
<path id="Vector_8" d="M21.9735 72.3926C23.491 72.6218 24.2926 73.6138 24.0038 74.8479C23.7595 75.8917 22.9137 76.5015 21.8281 76.4165C20.8754 76.3419 20.0895 75.5425 20.0388 74.5965C19.981 73.5173 20.6164 72.6767 21.657 72.4553C21.7479 72.436 21.8384 72.415 21.9735 72.3926Z" fill="black"/>
<path id="Vector_9" d="M57.4485 21.0332C58.493 20.8367 59.5072 21.461 59.7839 22.4382C60.0697 23.4475 59.5171 24.5349 58.5397 24.8862C57.5382 25.2462 56.4587 24.7946 56.0087 23.8273C55.5804 22.9067 55.9421 21.778 56.8395 21.2689C57.0148 21.1695 57.215 21.1139 57.4485 21.0332Z" fill="black"/>
<path id="Vector_10" d="M57.5252 10.6108C56.4395 10.0642 55.9784 9.02852 56.3541 8.05469C56.7312 7.07731 57.7896 6.51441 58.7398 6.786C59.8443 7.10171 60.5042 8.21018 60.2071 9.25053C59.8772 10.4054 58.7546 10.9908 57.5252 10.6108Z" fill="black"/>
<path id="Vector_11" d="M21.01 70.8511C19.9612 70.0859 19.8555 68.9977 20.3945 68.0795C20.8868 67.241 22.0024 66.9148 22.884 67.3034C23.9435 67.7705 24.413 68.982 23.9304 70.0031C23.4138 71.0963 22.2309 71.4536 21.01 70.8511Z" fill="black"/>
<path id="Vector_12" d="M55.0119 65.1906C53.9285 65.0075 53.2933 64.3978 53.1368 63.4363C53.0106 62.6611 53.4765 61.7783 54.2132 61.3968C54.9527 61.0138 55.8276 61.1177 56.4502 61.6624C57.0757 62.2097 57.3087 63.0806 57.0327 63.8395C56.7208 64.697 56.0438 65.1608 55.0119 65.1906Z" fill="black"/>
<path id="Vector_13" d="M58.1469 11.7637C59.4811 11.8375 60.3192 12.7086 60.2608 13.9114C60.2078 15.0018 59.2293 15.8528 58.103 15.7879C57.163 15.7338 56.3793 14.9831 56.2435 14.0065C56.1188 13.1099 56.7143 12.1752 57.6101 11.874C57.7678 11.821 57.9363 11.8 58.1469 11.7637Z" fill="black"/>
<path id="Vector_14" d="M26.9733 78.751C25.8237 79.2453 24.7296 78.879 24.2309 77.8633C23.7528 76.8896 24.1132 75.7559 25.0708 75.221C26.0042 74.6996 27.2123 75.0161 27.7581 75.9251C28.3461 76.9041 28.0444 78.0414 26.9733 78.751Z" fill="black"/>
<path id="Vector_15" d="M27.6739 21.1816C28.4799 20.4659 29.2495 20.3314 30.0513 20.7373C30.8231 21.128 31.2374 21.9209 31.1407 22.822C31.0607 23.5668 30.4469 24.2583 29.6719 24.4766C28.8776 24.7003 27.9734 24.3713 27.5045 23.688C26.9659 22.9029 27.016 22.0479 27.6739 21.1816Z" fill="black"/>
<path id="Vector_16" d="M59.9437 18.6249C59.7065 19.7933 58.7281 20.5305 57.6881 20.3641C56.5692 20.1851 55.8409 19.2039 55.9817 18.0652C56.1103 17.0254 57.105 16.2452 58.1653 16.3527C59.2699 16.4646 60.0197 17.4011 59.9437 18.6249Z" fill="black"/>
<path id="Vector_17" d="M55.7657 25.3572C55.5025 26.2699 54.9413 26.8224 54.0446 26.9581C53.2827 27.0734 52.6602 26.7724 52.1929 26.1618C51.6437 25.4441 51.6297 24.5751 52.1493 23.8247C52.6425 23.1125 53.535 22.8031 54.3609 23.058C55.2064 23.319 55.7704 24.0528 55.7882 24.9198C55.7909 25.05 55.7788 25.1805 55.7657 25.3572Z" fill="black"/>
<path id="Vector_18" d="M25.6329 65.4715C26.7538 65.2168 27.5355 65.4999 28.0432 66.3097C28.4784 67.0038 28.434 67.9177 27.9338 68.5604C27.4013 69.2446 26.53 69.5304 25.7392 69.2803C24.9429 69.0285 24.3583 68.2843 24.3103 67.4613C24.2604 66.6057 24.7215 65.8987 25.6329 65.4715Z" fill="black"/>
<path id="Vector_19" d="M52.943 65.8958C52.5362 66.7678 51.862 67.1876 50.9657 67.1588C50.0896 67.1306 49.3815 66.5006 49.15 65.6632C48.9279 64.8594 49.2112 64.0551 49.8977 63.5409C50.5544 63.0491 51.4557 63.0154 52.1528 63.4565C52.8237 63.8811 53.2024 64.7141 53.0665 65.4791C53.0438 65.6071 52.9979 65.7309 52.943 65.8958Z" fill="black"/>
<path id="Vector_20" d="M32.2489 66.1384C31.5543 67.6394 29.6294 67.8545 28.6934 66.4471C28.1923 65.6935 28.2918 64.7207 28.9151 64.0255C29.5027 63.3699 30.4552 63.1932 31.2634 63.5896C32.093 63.9966 32.5341 64.9088 32.3437 65.8297C32.3249 65.9202 32.2893 66.0072 32.2489 66.1384Z" fill="black"/>
<path id="Vector_21" d="M49.1321 61.0409C48.6698 59.8721 49.0138 58.8368 49.9992 58.3277C50.9107 57.8569 52.0484 58.1673 52.5979 59.0369C53.1797 59.9573 52.9062 61.2159 51.9989 61.7937C51.0023 62.4284 49.8727 62.1443 49.1321 61.0409Z" fill="black"/>
<path id="Vector_22" d="M31.9951 59.4031C32.6625 60.3696 32.6624 61.2939 32.0219 62.0506C31.4617 62.7125 30.4786 62.935 29.6836 62.5799C28.6266 62.1076 28.1852 60.8104 28.7378 59.8005C29.3009 58.7715 30.5965 58.4306 31.5755 59.059C31.7156 59.149 31.8375 59.2672 31.9951 59.4031Z" fill="black"/>
<path id="Vector_23" d="M32.1223 18.882C33.2409 18.3375 34.2331 18.5402 34.8369 19.4036C35.4127 20.2271 35.3135 21.3219 34.6014 22.0017C33.7647 22.8003 32.4632 22.7513 31.7083 21.8928C30.9128 20.9881 31.0738 19.7266 32.1223 18.882Z" fill="black"/>
<path id="Vector_24" d="M52.6215 9.27515C53.5188 8.58866 54.4043 8.53011 55.1681 9.07963C55.9293 9.62718 56.2099 10.5223 55.8969 11.4039C55.5208 12.4629 54.28 12.9999 53.2441 12.5518C52.1606 12.0832 51.6967 10.8244 52.2407 9.80565C52.3361 9.62687 52.4741 9.47077 52.6215 9.27515Z" fill="black"/>
<path id="Vector_25" d="M30.244 77.0307C28.6188 76.9349 27.709 75.1514 28.6271 73.8664C29.1212 73.1751 30.0214 72.8365 30.8388 73.0938C31.7552 73.3822 32.2964 74.153 32.262 75.1207C32.232 75.9637 31.5964 76.749 30.7834 76.9411C30.6207 76.9795 30.4541 77.0013 30.244 77.0307Z" fill="black"/>
<path id="Vector_26" d="M39.667 22.0209C39.6928 20.8353 40.3532 20.0267 41.4018 19.8444C42.2458 19.6977 43.1911 20.264 43.5312 21.1199C43.9394 22.1474 43.4117 23.3175 42.3606 23.7156C41.3483 24.099 40.189 23.5698 39.8106 22.5473C39.7529 22.3914 39.7177 22.2273 39.667 22.0209Z" fill="black"/>
<path id="Vector_27" d="M30.0634 68.127C31.1946 68.1573 31.9547 68.7002 32.2148 69.6238C32.446 70.4451 32.0662 71.3777 31.3088 71.8479C30.3356 72.4522 29.0161 72.0811 28.4815 71.0528C27.9493 70.0292 28.4159 68.7481 29.4883 68.3027C29.6589 68.2318 29.8415 68.1899 30.0634 68.127Z" fill="black"/>
<path id="Vector_28" d="M32.6088 27.4545C31.4644 26.7999 31.0876 25.7927 31.5659 24.7621C31.9894 23.8496 33.0559 23.3857 34.0046 23.7013C35.0361 24.0446 35.5956 25.1344 35.3142 26.1515C35.0579 27.0779 33.9191 27.9718 32.6088 27.4545Z" fill="black"/>
<path id="Vector_29" d="M47.6346 65.1118C48.6376 65.6632 49.0545 66.5643 48.7671 67.4964C48.4923 68.3876 47.6258 69.0229 46.7603 68.9676C45.7866 68.9054 44.9816 68.1737 44.8605 67.163C44.6842 65.6918 46.1698 64.5253 47.6346 65.1118Z" fill="black"/>
<path id="Vector_30" d="M45.9098 55.6293C46.7233 55.1796 47.4833 55.2063 48.1878 55.7537C48.8538 56.2713 49.0992 56.9826 48.9071 57.791C48.7148 58.6002 48.165 59.0986 47.3469 59.2895C46.5456 59.4765 45.6603 59.0666 45.2225 58.3015C44.7954 57.5551 44.9017 56.6128 45.4938 55.9781C45.6069 55.8569 45.7479 55.7617 45.9098 55.6293Z" fill="black"/>
<path id="Vector_31" d="M55.4177 17.0025C54.616 17.6606 53.7821 17.7599 53.0151 17.3128C52.3031 16.8978 51.9118 16.0732 52.0485 15.2762C52.2023 14.3798 52.8207 13.7386 53.7496 13.5922C54.5377 13.4679 55.1847 13.7824 55.6429 14.4182C56.1343 15.0999 56.1484 15.838 55.7522 16.5761C55.6741 16.7216 55.5503 16.8425 55.4177 17.0025Z" fill="black"/>
<path id="Vector_32" d="M48.7181 62.7867C48.1946 63.7799 47.4911 64.1818 46.545 64.065C45.8265 63.9763 45.114 63.3474 44.9182 62.6292C44.6904 61.7936 45.0104 60.9202 45.7264 60.4231C46.4123 59.947 47.3128 59.9635 48.019 60.4652C48.7345 60.9733 49.0021 61.8318 48.7181 62.7867Z" fill="black"/>
<path id="Vector_33" d="M55.8943 20.3754C55.7978 21.5519 54.8807 22.4041 53.8321 22.3402C52.7368 22.2734 51.847 21.3373 51.8803 20.2867C51.914 19.223 52.805 18.3465 53.8632 18.3361C55.0073 18.3248 55.8406 19.1415 55.8943 20.3754Z" fill="black"/>
<path id="Vector_34" d="M37.24 20.7563C36.0735 20.536 35.3128 19.6038 35.4457 18.6036C35.6047 17.4068 36.5057 16.6831 37.6993 16.7933C38.7269 16.8881 39.4904 17.8407 39.4299 18.9524C39.373 19.9987 38.4706 20.7603 37.24 20.7563Z" fill="black"/>
<path id="Vector_35" d="M35.0531 61.4682C36.129 61.8383 36.7299 62.6797 36.6188 63.6107C36.508 64.5383 35.7193 65.3365 34.8185 65.4036C33.98 65.466 33.3345 65.1264 32.8991 64.4036C32.4686 63.6889 32.5025 62.968 32.9747 62.3044C33.464 61.6165 34.1408 61.2813 35.0531 61.4682Z" fill="black"/>
<path id="Vector_36" d="M36.1856 30.0284C35.2614 29.2146 35.0692 28.2859 35.6055 27.3768C36.0911 26.5537 37.0814 26.1858 37.9644 26.5004C39.1031 26.9061 39.6385 28.1396 39.1449 29.2202C38.6329 30.341 37.3716 30.6991 36.1856 30.0284Z" fill="black"/>
<path id="Vector_37" d="M39.3974 23.1607C39.5329 24.1433 39.2499 24.9022 38.4029 25.3812C37.4167 25.9391 36.2175 25.5735 35.6768 24.5717C35.1497 23.5951 35.5313 22.3864 36.5344 21.8558C37.5231 21.3328 38.7146 21.7312 39.2288 22.7587C39.2868 22.8746 39.333 22.9965 39.3974 23.1607Z" fill="black"/>
<path id="Vector_38" d="M33.6511 60.4516C32.7916 59.7221 32.5396 58.9674 32.843 58.1122C33.1039 57.3773 33.8496 56.8213 34.6237 56.7846C35.4624 56.7449 36.2018 57.1994 36.5463 57.9665C36.8979 58.7491 36.7549 59.5454 36.1483 60.1832C35.6108 60.7485 34.74 60.9246 33.9891 60.6177C33.8857 60.5755 33.7867 60.5227 33.6511 60.4516Z" fill="black"/>
<path id="Vector_39" d="M39.5584 16.936C39.4204 15.2811 40.5394 14.1635 41.9305 14.5091C42.8839 14.746 43.5042 15.5348 43.4869 16.4883C43.4696 17.4448 42.8325 18.1958 41.855 18.412C41.0169 18.5974 40.1065 18.1278 39.6921 17.2929C39.6428 17.1936 39.6106 17.0857 39.5584 16.936Z" fill="black"/>
<path id="Vector_40" d="M44.8372 59.8088C44.463 60.7746 43.8246 61.2656 42.964 61.2807C42.1087 61.2957 41.4097 60.8441 41.0703 60.0651C40.7247 59.2721 40.903 58.5684 41.4559 57.95C42.0102 57.3299 42.8597 57.1275 43.5956 57.4282C44.3908 57.753 44.8309 58.3577 44.9036 59.214C44.919 59.3952 44.8708 59.5818 44.8372 59.8088Z" fill="black"/>
<path id="Vector_41" d="M49.6242 24.3045C48.5458 24.1636 47.8003 23.489 47.7064 22.6122C47.5983 21.6013 48.1212 20.7151 49.0335 20.4096C49.8125 20.1487 50.512 20.3353 51.0827 20.9072C51.6592 21.4848 51.8239 22.2045 51.543 22.9651C51.2305 23.8108 50.5879 24.2662 49.6242 24.3045Z" fill="black"/>
<path id="Vector_42" d="M39.898 27.7442C39.2805 26.8713 39.2368 26.0058 39.7472 25.2813C40.2155 24.6167 41.066 24.2771 41.8034 24.4605C42.6184 24.6631 43.2504 25.3379 43.35 26.112C43.4628 26.9876 43.0311 27.8323 42.2779 28.21C41.4756 28.6122 40.6969 28.468 39.898 27.7442Z" fill="black"/>
<path id="Vector_43" d="M51.4969 16.2743C52.205 17.3842 52.0936 18.3505 51.2012 19.0963C50.4613 19.7147 49.3695 19.6903 48.6467 19.0393C47.8072 18.2831 47.7299 17.1083 48.4623 16.2382C49.1329 15.4417 50.3241 15.3272 51.1811 15.98C51.2843 16.0587 51.3745 16.1546 51.4969 16.2743Z" fill="black"/>
<path id="Vector_44" d="M40.8369 68.8664C41.1564 67.836 41.8432 67.29 42.79 67.2823C43.6246 67.2755 44.4027 67.8209 44.6746 68.6033C44.9522 69.4022 44.7036 70.2746 44.044 70.8158C43.4323 71.3178 42.5536 71.399 41.8447 71.019C41.0909 70.615 40.699 69.8064 40.8369 68.8664Z" fill="black"/>
<path id="Vector_45" d="M36.4966 72.9639C36.5022 74.0661 35.919 74.9159 35.0414 75.1385C34.1485 75.3649 33.2336 74.9875 32.7822 74.2064C32.1902 73.1822 32.5709 71.9487 33.6418 71.4208C34.6757 70.9112 35.9431 71.4074 36.3642 72.4901C36.4179 72.6282 36.4493 72.775 36.4966 72.9639Z" fill="black"/>
<path id="Vector_46" d="M36.2982 68.3957C36.0814 69.5087 35.3606 70.1354 34.3385 70.1454C33.4233 70.1543 32.6159 69.5493 32.3939 68.6881C32.1535 67.7556 32.602 66.7702 33.4885 66.3611C35.0659 65.633 36.5233 67.0717 36.2982 68.3957Z" fill="black"/>
<path id="Vector_47" d="M44.251 23.1937C45.0857 22.5165 45.8287 22.4458 46.6461 22.9401C47.327 23.3518 47.7179 24.1858 47.5862 24.946C47.4362 25.8121 46.7919 26.445 45.8382 26.5881C45.0435 26.7073 44.4079 26.3644 43.9694 25.7213C43.5123 25.0508 43.4941 24.3278 43.911 23.617C43.995 23.4739 44.1171 23.3532 44.251 23.1937Z" fill="black"/>
<path id="Vector_48" d="M48.5411 28.6585C47.7751 28.1335 47.459 27.4339 47.6041 26.5658C47.7227 25.8562 48.1572 25.3534 48.8227 25.0845C49.6627 24.7451 50.6378 25.0415 51.1602 25.7646C51.691 26.4993 51.6688 27.4988 51.1063 28.2009C50.5139 28.9401 49.5754 29.1173 48.5411 28.6585Z" fill="black"/>
<path id="Vector_49" d="M42.5684 65.8685C41.4092 65.7374 40.6593 64.9789 40.634 63.9593C40.6091 62.9565 41.2626 62.1065 42.1925 61.9323C43.2269 61.7386 44.163 62.266 44.4997 63.2323C44.9481 64.5193 44.047 65.7814 42.5684 65.8685Z" fill="black"/>
<path id="Vector_50" d="M48.4867 14.0174C47.7311 13.2041 47.5901 12.2172 48.0917 11.4456C48.5789 10.6962 49.5122 10.3305 50.3242 10.5898C51.0946 10.8359 51.6088 11.3504 51.7403 12.1565C51.8777 12.9978 51.6109 13.716 50.8614 14.1729C50.0653 14.6583 49.2712 14.599 48.4867 14.0174Z" fill="black"/>
<path id="Vector_51" d="M36.8379 56.1545C37.0822 55.0972 37.947 54.3911 38.8692 54.4508C39.8351 54.5133 40.7016 55.3357 40.7718 56.2566C40.8513 57.2991 40.1914 58.1746 39.1522 58.4197C38.0942 58.6692 36.6127 57.6973 36.8379 56.1545Z" fill="black"/>
<path id="Vector_52" d="M40.4893 65.7318C40.6402 66.9037 40.1216 67.7834 39.1375 68.0975C38.265 68.3759 37.2522 67.9531 36.8131 67.1271C36.261 66.0884 36.7028 64.8517 37.7958 64.3766C38.9269 63.8848 40.031 64.4264 40.4893 65.7318Z" fill="black"/>
<path id="Vector_53" d="M43.5732 28.7461C44.0365 27.6704 44.6266 27.266 45.6218 27.2998C46.4197 27.3269 47.0969 27.8338 47.3755 28.6204C47.6543 29.4077 47.4464 30.0991 46.8795 30.6639C46.2899 31.2514 45.5645 31.4281 44.778 31.103C44.0086 30.7849 43.5581 30.2106 43.54 29.3498C43.5361 29.1645 43.557 28.9787 43.5732 28.7461Z" fill="black"/>
<path id="Vector_54" d="M39.5465 59.3149C40.9299 60.2204 41.0383 61.8195 39.8132 62.7167C39.0826 63.2518 38.0857 63.1912 37.3423 62.5666C36.7069 62.0326 36.5084 60.9165 36.9147 60.163C37.357 59.3429 38.3289 58.9361 39.2505 59.1886C39.3395 59.213 39.4229 59.2579 39.5465 59.3149Z" fill="black"/>
<path id="Vector_55" d="M45.4204 16.453C43.8864 15.9432 43.3046 14.5772 44.0762 13.4014C44.5946 12.6117 45.5661 12.2897 46.421 12.6244C47.3319 12.9812 47.8866 13.9486 47.6986 14.8529C47.51 15.7602 46.6765 16.4482 45.746 16.4636C45.653 16.4651 45.56 16.46 45.4204 16.453Z" fill="black"/>
<path id="Vector_56" d="M40.544 71.0452C40.5397 72.1011 40.0006 72.8805 39.1368 73.1322C38.2816 73.3815 37.3613 73.0578 36.8984 72.3121C36.4828 71.6427 36.4596 70.9344 36.8495 70.2491C37.2406 69.5617 37.8825 69.1977 38.6521 69.2477C39.4336 69.2986 40.0605 69.7014 40.3807 70.4663C40.4518 70.636 40.4882 70.8203 40.544 71.0452Z" fill="black"/>
<path id="Vector_57" d="M46.8328 17.885C47.756 18.6651 47.9636 19.5539 47.4636 20.4733C47.022 21.2852 46.0351 21.7074 45.1852 21.4257C44.443 21.1797 43.9323 20.6789 43.7948 19.9006C43.6558 19.1136 43.8786 18.4114 44.5552 17.9335C45.2752 17.4249 46.036 17.3975 46.8328 17.885Z" fill="black"/>
<path id="Vector_58" d="M43.5532 56.5794C42.5267 56.8131 41.6136 56.3713 41.2033 55.4732C40.8041 54.5992 41.0625 53.6159 41.875 53.0588C42.0275 52.9542 42.2891 52.9164 42.4708 52.9631C43.1363 53.1339 43.7962 53.3341 44.4426 53.5668C44.6234 53.6318 44.8174 53.8187 44.891 53.997C45.3141 55.022 44.7631 56.0926 43.5532 56.5794Z" fill="black"/>
<path id="Vector_59" d="M39.2996 30.7749C39.6346 29.4361 40.7539 28.7568 41.9002 29.1553C42.9995 29.5374 43.5974 30.7969 43.0955 31.8279C42.7156 32.6085 42.292 33.1 41.3583 32.6273C41.0321 32.4621 40.6537 32.4003 40.2996 32.2899C39.3684 31.9996 39.2429 31.8151 39.2996 30.7749Z" fill="black"/>
<path id="Vector_60" d="M55.5787 60.1048C54.507 60.2077 53.7288 59.8424 53.3442 59.0469C52.9712 58.2755 53.0468 57.5252 53.6014 56.8656C53.7063 56.7409 54.013 56.6365 54.1353 56.6996C55.0556 57.1744 55.951 57.6971 56.8588 58.1965C57.126 58.3435 57.1417 58.5165 57.0372 58.7903C56.7787 59.4675 56.3112 59.8926 55.5787 60.1048Z" fill="black"/>
<path id="Vector_61" d="M27.7947 26.1094C28.7736 25.3593 29.8255 25.3947 30.5875 26.1726C31.2928 26.8927 31.3498 28.0437 30.7372 28.8167C30.5361 29.0705 30.359 29.1662 30.0433 28.9844C29.274 28.5413 28.4753 28.1488 27.7102 27.6989C27.0858 27.3317 27.0533 27.0771 27.4723 26.4729C27.5562 26.3518 27.6677 26.2499 27.7947 26.1094Z" fill="black"/>
<path id="Vector_62" d="M60.6598 19.775C61.603 19.0104 62.4223 18.97 63.3659 19.7042C62.6527 20.8037 61.933 21.9132 61.2134 23.0224C59.8922 22.1692 59.7097 20.9296 60.6598 19.775Z" fill="black"/>
<path id="Vector_63" d="M22.2791 66.534C21.8283 66.4343 21.4254 66.3343 20.8198 66.1841C21.6307 64.9262 22.345 63.8182 23.0543 62.7178C23.9817 63.2389 24.3444 63.9917 24.1934 64.8857C24.0455 65.7603 23.3462 66.3779 22.2791 66.534Z" fill="black"/>
<path id="Vector_64" d="M59.5884 62.6907C59.5018 63.2482 59.1747 63.2827 58.7733 63.1387C57.9694 62.8505 57.4641 62.2786 57.3599 61.4365C57.2549 60.5887 57.6386 59.9407 58.3802 59.4482C59.1768 60.3906 59.9004 61.3172 59.5884 62.6907Z" fill="black"/>
<path id="Vector_65" d="M26.7839 23.7511C27.1184 24.8652 26.8227 25.6825 25.8915 26.2321C25.0486 25.2817 24.3604 24.2899 24.7332 22.9014C24.8356 22.5199 25.0397 22.4357 25.3783 22.5335C26.017 22.718 26.4993 23.0891 26.7839 23.7511Z" fill="black"/>
<path id="Vector_66" d="M49.3747 55.1006C50.6053 55.4776 51.7893 55.8502 52.9838 56.2261C52.482 57.1059 51.6998 57.4947 50.8192 57.3353C50.0079 57.1885 49.3224 56.4799 49.202 55.6201C49.1788 55.4546 49.2828 55.2713 49.3747 55.1006Z" fill="black"/>
<path id="Vector_67" d="M32.5095 28.4456C33.9874 28.0787 35.243 29.168 35.0436 30.6661C33.8092 30.2792 32.5848 29.8954 31.3169 29.498C31.5634 28.9295 31.9781 28.6521 32.5095 28.4456Z" fill="black"/>
<path id="Vector_68" d="M38.591 31.7443C37.9665 31.5603 37.3419 31.3763 36.7173 31.1923C37.4637 30.9075 38.0821 31.1081 38.6216 31.6644C38.621 31.7144 38.591 31.7443 38.591 31.7443Z" fill="black"/>
<path id="Vector_69" d="M45.5737 53.9992C46.259 54.1716 46.9442 54.3439 47.6295 54.5163C46.8389 54.7864 46.171 54.619 45.594 54.0273C45.5755 53.995 45.5737 53.9992 45.5737 53.9992Z" fill="black"/>
<path id="Vector_70" d="M38.6359 31.6982C38.6728 31.7126 38.6944 31.7415 38.716 31.7704C38.6884 31.7744 38.6608 31.7784 38.6119 31.7626C38.5906 31.7427 38.6205 31.7128 38.6359 31.6982Z" fill="black"/>
<path id="Vector_71" d="M24.3071 22.5137C24.3206 22.4711 24.3551 22.448 24.3897 22.4248C24.3968 22.4547 24.4039 22.4847 24.3926 22.5412C24.3588 22.5562 24.3435 22.5447 24.3071 22.5137Z" fill="black"/>
<path id="Vector_72" d="M45.5775 53.995C45.5787 53.9935 45.5683 53.9756 45.5683 53.9756C45.5683 53.9756 45.5644 53.9834 45.5695 53.9923C45.5745 54.0011 45.5764 53.9965 45.5775 53.995Z" fill="black"/>
<path id="Vector_73" d="M55.4467 43.358C55.4956 43.3626 55.5446 43.3672 55.6769 43.3432C55.7771 42.505 55.7939 41.6954 55.8108 40.8857C56.033 40.8857 56.2552 40.8857 56.5249 40.8857C56.5249 42.0101 56.5565 43.1228 56.5125 44.2324C56.4876 44.8606 55.8942 45.0249 55.4323 45.101C55.055 45.1632 54.627 44.973 54.2372 44.8465C54.175 44.8263 54.195 44.5528 54.1763 44.3903C55.6963 44.3765 55.6963 44.3765 55.7524 44.0001C55.5516 44.0001 55.3523 44.0112 55.1546 43.998C54.5007 43.9546 54.0416 43.559 54.0024 42.924C53.9613 42.2584 53.9933 41.5882 53.9933 40.8942C54.2231 40.8942 54.4198 40.8942 54.5823 40.8942C54.6942 41.6999 54.8044 42.4939 54.9986 43.3212C55.2039 43.3557 55.3253 43.3568 55.4467 43.358Z" fill="#F7F6F7"/>
<path id="Vector_74" d="M43.8506 43.9747C42.2709 44.0731 41.4732 42.8638 42.2122 41.4936C42.3666 41.2072 42.7919 41.0349 43.127 40.8903C43.3265 40.8042 43.5935 40.8745 43.8804 40.8745C43.8804 40.4924 43.8804 40.1656 43.8804 39.8066C44.1247 39.8066 44.3185 39.8066 44.581 39.8066C44.581 41.083 44.5989 42.3605 44.5513 43.6357C44.5469 43.7537 44.1262 43.8562 43.8506 43.9747ZM43.867 43.3076C43.867 42.7032 43.867 42.0987 43.867 41.3197C43.4697 41.4715 42.9625 41.5297 42.9143 41.7104C42.7931 42.1646 42.8143 42.6895 42.9237 43.1517C42.9546 43.2824 43.4862 43.2947 43.867 43.3076Z" fill="#FAFAFA"/>
<path id="Vector_75" d="M30.6985 41.7126C31.0827 40.9564 31.6215 40.7048 32.3616 40.8965C32.9208 41.0414 33.2475 41.5453 33.2579 42.2791C33.2744 43.4542 32.848 44.0086 31.9313 44.0038C31.2365 44.0001 30.7541 43.6127 30.6725 42.921C30.6273 42.5388 30.6808 42.1449 30.6985 41.7126ZM31.4658 41.7653C31.4404 42.1451 31.3454 42.539 31.4186 42.8988C31.4555 43.0802 31.7931 43.3051 32.002 43.3128C32.1599 43.3186 32.386 43.0367 32.4769 42.8354C32.5609 42.6495 32.5222 42.3995 32.5084 42.1795C32.467 41.52 32.09 41.3385 31.4658 41.7653Z" fill="#F7F6F7"/>
<path id="Vector_76" d="M39.0548 42.6727C39.0548 43.099 39.0548 43.4712 39.0548 43.8918C38.8068 43.8918 38.579 43.8918 38.3053 43.8918C38.3053 43.1983 38.2747 42.5119 38.3139 41.8296C38.3537 41.1364 38.7767 40.8626 39.6718 40.8703C40.4218 40.8767 40.8223 41.202 40.8565 41.9014C40.8883 42.5513 40.8633 43.2041 40.8633 43.8984C40.6097 43.8984 40.3792 43.8984 40.1014 43.8984C40.1014 43.2503 40.0953 42.6214 40.1038 41.9927C40.1086 41.6413 40.0111 41.4351 39.6022 41.4262C39.1716 41.4168 39.0408 41.622 39.0535 42.0036C39.0603 42.2084 39.0548 42.4136 39.0548 42.6727Z" fill="#F7F6F7"/>
<path id="Vector_77" d="M35.1757 42.6233C35.2025 43.0545 35.2779 43.3903 35.7781 43.352C36.2902 43.3128 36.2665 42.9196 36.2765 42.5722C36.2923 42.0195 36.2807 41.466 36.2807 40.8945C36.5318 40.8945 36.7265 40.8945 36.9581 40.8945C36.9581 41.6186 36.992 42.3221 36.9477 43.0205C36.9104 43.6086 36.3752 44.0006 35.729 44.0008C35.0845 44.0011 34.5443 43.6061 34.5078 43.022C34.4642 42.3232 34.4975 41.6197 34.4975 40.895C34.7297 40.895 34.9241 40.895 35.1755 40.895C35.1755 41.4663 35.1755 42.0195 35.1757 42.6233Z" fill="#FCFDFC"/>
<path id="Vector_78" d="M29.0039 42.3491C29.4537 42.6168 29.5721 43.0044 29.4351 43.4287C29.2889 43.8817 28.8764 44.0047 28.445 43.9998C28.0949 43.9958 27.7454 43.9392 27.362 43.9027C27.3536 43.7128 27.3467 43.5555 27.3375 43.3469C27.6135 43.3653 27.8511 43.3981 28.0877 43.3921C28.3096 43.3866 28.5305 43.3401 28.7519 43.3116C28.7698 43.2456 28.7877 43.1796 28.8056 43.1135C28.5261 42.9271 28.2571 42.722 27.9648 42.5584C27.4976 42.2969 27.1799 41.9499 27.3485 41.3893C27.514 40.8395 28.0045 40.8656 28.4577 40.8725C28.6625 40.8756 28.8683 40.8797 29.0714 40.9031C29.4038 40.9415 29.5197 41.1228 29.3689 41.5131C28.95 41.5131 28.5064 41.5131 28.0628 41.5131C28.0403 41.5695 28.0177 41.626 27.9952 41.6824C28.3188 41.8988 28.6423 42.1151 29.0039 42.3491Z" fill="#F7F6F7"/>
<path id="Vector_79" d="M51.1816 40.4326C51.4106 40.3508 51.6395 40.269 51.9086 40.1729C51.9469 40.4504 51.9733 40.6421 52.0044 40.8682C52.2674 40.8682 52.5194 40.8682 52.8469 40.8682C52.8194 41.0596 52.7983 41.2062 52.711 41.3847C52.5309 41.4232 52.4171 41.4298 52.3033 41.4365C52.2543 41.4277 52.2054 41.419 52.0729 41.4377C51.9826 41.9927 51.9553 42.5215 51.9853 43.047C51.9918 43.1619 52.203 43.2652 52.3199 43.3738C52.4807 43.4018 52.6415 43.4299 52.9403 43.4819C52.8006 43.6848 52.729 43.9171 52.5929 43.9646C51.9746 44.1806 51.4704 43.9572 51.2084 43.3259C51.1911 42.3033 51.1863 41.368 51.1816 40.4326Z" fill="#F5F3F6"/>
<path id="Vector_80" d="M45.8301 42.1524C46.0294 41.063 46.5778 40.6728 47.6103 40.9002C47.7745 40.9363 47.8887 41.1992 48.0596 41.3958C47.5 41.5184 47.0032 41.4933 46.7375 41.7289C46.5353 41.9081 46.5724 42.4224 46.5982 42.7807C46.6634 43.6863 47.406 43.2181 47.8909 43.3771C47.8909 43.5268 47.8909 43.6975 47.8909 43.8646C46.5256 44.3212 45.8291 43.755 45.8301 42.1524Z" fill="#F7F6F7"/>
<path id="Vector_81" d="M49.8721 43.4492C49.9376 44.0943 49.5409 43.9251 49.1973 43.906C49.1973 42.9054 49.1973 41.915 49.1973 40.8994C49.4091 40.8994 49.6039 40.8994 49.8721 40.8994C49.8721 41.738 49.8721 42.5662 49.8721 43.4492Z" fill="white"/>
<path id="Vector_82" d="M49.1484 40.1094C49.2096 39.5343 49.5901 39.8678 49.8781 39.75C49.8913 39.9948 49.9016 40.185 49.9164 40.461C49.6194 40.3168 49.2329 40.7304 49.1484 40.1094Z" fill="#F5F3F6"/>
<path id="Vector_83" d="M51.1477 40.4658C51.1857 41.3685 51.1904 42.3038 51.1884 43.2912C51.1449 42.8923 51.087 42.4418 51.0772 41.9902C51.0665 41.4935 51.1001 40.9958 51.1477 40.4658Z" fill="black"/>
<path id="Vector_84" d="M55.7699 40.9121C55.7938 41.6974 55.777 42.507 55.7117 43.3306C55.6852 42.5419 55.7071 41.7392 55.7699 40.9121Z" fill="black"/>
<path id="Vector_85" d="M52.2938 43.336C52.2022 43.266 51.9911 43.1627 51.9846 43.0478C51.9546 42.5223 51.9819 41.9935 52.0357 41.4482C52.082 41.8727 52.0633 42.3158 52.0892 42.7564C52.1 42.9396 52.2058 43.1172 52.2938 43.336Z" fill="black"/>
<path id="Vector_86" d="M52.3257 41.4678C52.4165 41.4316 52.5304 41.425 52.6869 41.4229C52.6026 41.4507 52.4756 41.4741 52.3257 41.4678Z" fill="black"/>
<path id="Vector_87" d="M55.4258 43.3285C55.3255 43.3583 55.2041 43.3571 55.0405 43.3368C55.1338 43.311 55.2693 43.3043 55.4258 43.3285Z" fill="black"/>
<path id="Vector_88" d="M43.828 43.3341C43.4866 43.2943 42.955 43.2821 42.9241 43.1514C42.8147 42.6892 42.7935 42.1643 42.9147 41.71C42.9629 41.5293 43.4701 41.4711 43.8674 41.3193C43.8674 42.0983 43.8674 42.7028 43.828 43.3341Z" fill="black"/>
<path id="Vector_89" d="M31.4885 41.7288C32.0907 41.3402 32.4677 41.5218 32.5091 42.1813C32.523 42.4013 32.5616 42.6512 32.4776 42.8372C32.3867 43.0384 32.1606 43.3204 32.0028 43.3146C31.7939 43.3069 31.4562 43.082 31.4193 42.9006C31.3462 42.5408 31.4411 42.1469 31.4885 41.7288Z" fill="black"/>
</g>
</svg>
